# xmcd
#
# Track frame offsets: 
#        150
#        9276
#        23071
#        38888
#        47381
#        60072
#        77526
#        87961
#        110407
#        122251
#        139166
#        155706
#        168539
#        179137
#        193641
#        206554
#        218353
#
# Disc length: 3807 seconds
#
# Revision: 2
# Processed by: cddbd v1.5.2PL0 Copyright (c) Steve Scherf et al.
# Submitted via: ExactAudioCopy v0.99pb5
#
DISCID=d10edd11
DTITLE=Glenn Miller - [CD 10-10] - Song Of The Volga Boatmen
DYEAR=1900
DGENRE=Jazz
TTITLE0=I'll Be Around
TTITLE1=Song Of The Volga Boatmen
TTITLE2=Begin The Beguine
TTITLE3=Blues In My Heart
TTITLE4=It Must Be Jelly
TTITLE5=Anvil Chorus
TTITLE6=I Hear You Screamin'
TTITLE7=Poinciana
TTITLE8=Thers'll Be A Hot Time In The Town Of Berlin
TTITLE9=Going My Way
TTITLE10=Here We Go Again
TTITLE11=Everybody Loves My Baby (But My Baby Don't Love Nobody But Me
TTITLE11=)
TTITLE12=Sun Valley Jump
TTITLE13=Flying Home
TTITLE14=My Ideal
TTITLE15=Farewell Blues
TTITLE16=Alexander's Ragtime Band-Stompin's At The Savoy-Deep Purple-D
TTITLE16=on't Be That Way...
EXTD=
EXTT0=
EXTT1=
EXTT2=
EXTT3=
EXTT4=
EXTT5=
EXTT6=
EXTT7=
EXTT8=
EXTT9=
EXTT10=
EXTT11=
EXTT12=
EXTT13=
EXTT14=
EXTT15=
EXTT16=
PLAYORDER=
